<mxfile host="app.diagrams.net" modified="2023-03-06T13:23:20.463Z" agent="5.0 (X11; Linux x86_64) AppleWebKit/537.36 (KHTML, like Gecko) Chrome/101.0.4951.41 Safari/537.36" etag="r6938CPatnforBUyn1cG" version="21.0.2" type="github">
  <diagram name="第 1 页" id="YE78bg3gC0jm6Doc5u9h">
    <mxGraphModel dx="1440" dy="721" grid="1" gridSize="10" guides="1" tooltips="1" connect="1" arrows="1" fold="1" page="1" pageScale="1" pageWidth="827" pageHeight="1169" math="1" shadow="0">
      <root>
        <mxCell id="0" />
        <mxCell id="1" parent="0" />
        <mxCell id="egRfzebVVIe1bB4oqKLd-20" value="" style="rounded=1;whiteSpace=wrap;html=1;fillColor=none;fontColor=#ffffff;strokeColor=#006EAF;" vertex="1" parent="1">
          <mxGeometry x="152" y="624" width="628" height="400" as="geometry" />
        </mxCell>
        <mxCell id="egRfzebVVIe1bB4oqKLd-4" style="rounded=0;orthogonalLoop=1;jettySize=auto;html=1;exitX=1;exitY=1;exitDx=0;exitDy=0;" edge="1" parent="1" source="egRfzebVVIe1bB4oqKLd-1" target="egRfzebVVIe1bB4oqKLd-3">
          <mxGeometry relative="1" as="geometry" />
        </mxCell>
        <mxCell id="egRfzebVVIe1bB4oqKLd-1" value="&lt;font style=&quot;font-size: 24px;&quot;&gt;$$x_1$$&lt;/font&gt;" style="ellipse;whiteSpace=wrap;html=1;aspect=fixed;fillColor=#f5f5f5;gradientColor=#b3b3b3;strokeColor=#666666;" vertex="1" parent="1">
          <mxGeometry x="256" y="230" width="80" height="80" as="geometry" />
        </mxCell>
        <mxCell id="egRfzebVVIe1bB4oqKLd-5" style="rounded=0;orthogonalLoop=1;jettySize=auto;html=1;exitX=1;exitY=0;exitDx=0;exitDy=0;" edge="1" parent="1" source="egRfzebVVIe1bB4oqKLd-2" target="egRfzebVVIe1bB4oqKLd-3">
          <mxGeometry relative="1" as="geometry" />
        </mxCell>
        <mxCell id="egRfzebVVIe1bB4oqKLd-2" value="&lt;font style=&quot;font-size: 24px;&quot;&gt;$$x_2$$&lt;/font&gt;" style="ellipse;whiteSpace=wrap;html=1;aspect=fixed;fillColor=#f5f5f5;gradientColor=#b3b3b3;strokeColor=#666666;" vertex="1" parent="1">
          <mxGeometry x="256" y="490" width="80" height="80" as="geometry" />
        </mxCell>
        <mxCell id="egRfzebVVIe1bB4oqKLd-6" style="edgeStyle=orthogonalEdgeStyle;rounded=0;orthogonalLoop=1;jettySize=auto;html=1;exitX=1;exitY=0.5;exitDx=0;exitDy=0;" edge="1" parent="1" source="egRfzebVVIe1bB4oqKLd-3">
          <mxGeometry relative="1" as="geometry">
            <mxPoint x="666" y="400" as="targetPoint" />
          </mxGeometry>
        </mxCell>
        <mxCell id="egRfzebVVIe1bB4oqKLd-3" value="&lt;font style=&quot;font-size: 24px;&quot;&gt;$$f(\Sigma_i w_ix_i+b)$$&lt;/font&gt;" style="ellipse;whiteSpace=wrap;html=1;aspect=fixed;fillColor=#dae8fc;strokeColor=#6c8ebf;" vertex="1" parent="1">
          <mxGeometry x="396" y="310" width="180" height="180" as="geometry" />
        </mxCell>
        <mxCell id="egRfzebVVIe1bB4oqKLd-7" value="&lt;font style=&quot;font-size: 24px;&quot;&gt;$$y$$&lt;/font&gt;" style="text;html=1;strokeColor=none;fillColor=none;align=center;verticalAlign=middle;whiteSpace=wrap;rounded=0;" vertex="1" parent="1">
          <mxGeometry x="682" y="385" width="60" height="30" as="geometry" />
        </mxCell>
        <mxCell id="egRfzebVVIe1bB4oqKLd-10" value="&lt;font style=&quot;font-size: 24px;&quot;&gt;前向传播&lt;/font&gt;" style="rounded=1;whiteSpace=wrap;html=1;fillColor=#1ba1e2;fontColor=#ffffff;strokeColor=#006EAF;" vertex="1" parent="1">
          <mxGeometry x="159" y="310" width="40" height="170" as="geometry" />
        </mxCell>
        <mxCell id="egRfzebVVIe1bB4oqKLd-11" value="" style="rounded=1;whiteSpace=wrap;html=1;fillColor=none;fontColor=#ffffff;strokeColor=#006EAF;" vertex="1" parent="1">
          <mxGeometry x="149" y="200" width="631" height="400" as="geometry" />
        </mxCell>
        <mxCell id="egRfzebVVIe1bB4oqKLd-12" style="rounded=0;orthogonalLoop=1;jettySize=auto;html=1;exitX=1;exitY=1;exitDx=0;exitDy=0;endArrow=none;endFill=0;startArrow=classic;startFill=1;" edge="1" parent="1" source="egRfzebVVIe1bB4oqKLd-13" target="egRfzebVVIe1bB4oqKLd-17">
          <mxGeometry relative="1" as="geometry" />
        </mxCell>
        <mxCell id="egRfzebVVIe1bB4oqKLd-13" value="&lt;font style=&quot;font-size: 24px;&quot;&gt;$$\frac{\partial L^{B}}{\partial x_1}$$&lt;/font&gt;" style="ellipse;whiteSpace=wrap;html=1;aspect=fixed;fillColor=#f5f5f5;gradientColor=#b3b3b3;strokeColor=#666666;" vertex="1" parent="1">
          <mxGeometry x="259" y="654" width="80" height="80" as="geometry" />
        </mxCell>
        <mxCell id="egRfzebVVIe1bB4oqKLd-14" style="rounded=0;orthogonalLoop=1;jettySize=auto;html=1;exitX=1;exitY=0;exitDx=0;exitDy=0;endArrow=none;endFill=0;startArrow=classic;startFill=1;" edge="1" parent="1" source="egRfzebVVIe1bB4oqKLd-15" target="egRfzebVVIe1bB4oqKLd-17">
          <mxGeometry relative="1" as="geometry" />
        </mxCell>
        <mxCell id="egRfzebVVIe1bB4oqKLd-15" value="&lt;font style=&quot;font-size: 24px;&quot;&gt;$$\frac{\partial L^{B}}{\partial x_2}$$&lt;/font&gt;" style="ellipse;whiteSpace=wrap;html=1;aspect=fixed;fillColor=#f5f5f5;gradientColor=#b3b3b3;strokeColor=#666666;" vertex="1" parent="1">
          <mxGeometry x="259" y="914" width="80" height="80" as="geometry" />
        </mxCell>
        <mxCell id="egRfzebVVIe1bB4oqKLd-16" style="edgeStyle=orthogonalEdgeStyle;rounded=0;orthogonalLoop=1;jettySize=auto;html=1;exitX=1;exitY=0.5;exitDx=0;exitDy=0;startArrow=classic;startFill=1;endArrow=none;endFill=0;" edge="1" parent="1" source="egRfzebVVIe1bB4oqKLd-17">
          <mxGeometry relative="1" as="geometry">
            <mxPoint x="669" y="824" as="targetPoint" />
          </mxGeometry>
        </mxCell>
        <mxCell id="egRfzebVVIe1bB4oqKLd-17" value="" style="ellipse;whiteSpace=wrap;html=1;aspect=fixed;fillColor=#dae8fc;strokeColor=#6c8ebf;" vertex="1" parent="1">
          <mxGeometry x="399" y="734" width="180" height="180" as="geometry" />
        </mxCell>
        <mxCell id="egRfzebVVIe1bB4oqKLd-18" value="&lt;font style=&quot;font-size: 24px;&quot;&gt;$$e=\frac{\partial L^B}{\partial y}$$&lt;/font&gt;" style="text;html=1;strokeColor=none;fillColor=none;align=center;verticalAlign=middle;whiteSpace=wrap;rounded=0;" vertex="1" parent="1">
          <mxGeometry x="670" y="790" width="60" height="30" as="geometry" />
        </mxCell>
        <mxCell id="egRfzebVVIe1bB4oqKLd-19" value="&lt;span style=&quot;font-size: 24px;&quot;&gt;反向传播&lt;/span&gt;" style="rounded=1;whiteSpace=wrap;html=1;fillColor=#1ba1e2;fontColor=#ffffff;strokeColor=#006EAF;" vertex="1" parent="1">
          <mxGeometry x="162" y="734" width="40" height="170" as="geometry" />
        </mxCell>
        <mxCell id="egRfzebVVIe1bB4oqKLd-21" value="&lt;font style=&quot;font-size: 24px;&quot;&gt;$$w_1 = w_1 - lr\frac{\partial L^{B}}{\partial x_1}$$&lt;/font&gt;" style="text;html=1;strokeColor=none;fillColor=none;align=center;verticalAlign=middle;whiteSpace=wrap;rounded=0;" vertex="1" parent="1">
          <mxGeometry x="440" y="704" width="60" height="30" as="geometry" />
        </mxCell>
        <mxCell id="egRfzebVVIe1bB4oqKLd-23" value="&lt;font style=&quot;font-size: 24px;&quot;&gt;$$w_2 = w_2 - lr\frac{\partial L^{B}}{\partial x_2}$$&lt;/font&gt;" style="text;html=1;strokeColor=none;fillColor=none;align=center;verticalAlign=middle;whiteSpace=wrap;rounded=0;" vertex="1" parent="1">
          <mxGeometry x="305" y="849" width="60" height="30" as="geometry" />
        </mxCell>
        <mxCell id="egRfzebVVIe1bB4oqKLd-24" value="输入层" style="rounded=1;whiteSpace=wrap;html=1;fontSize=24;fillColor=#ffff88;strokeColor=#36393d;" vertex="1" parent="1">
          <mxGeometry x="250.5" y="1040" width="97" height="50" as="geometry" />
        </mxCell>
        <mxCell id="egRfzebVVIe1bB4oqKLd-25" value="隐藏层" style="rounded=1;whiteSpace=wrap;html=1;fontSize=24;fillColor=#ffcccc;strokeColor=#36393d;" vertex="1" parent="1">
          <mxGeometry x="439" y="1040" width="94" height="50" as="geometry" />
        </mxCell>
        <mxCell id="egRfzebVVIe1bB4oqKLd-26" value="输出层" style="rounded=1;whiteSpace=wrap;html=1;fontSize=24;fillColor=#ffcc99;strokeColor=#36393d;" vertex="1" parent="1">
          <mxGeometry x="620" y="1040" width="90" height="50" as="geometry" />
        </mxCell>
      </root>
    </mxGraphModel>
  </diagram>
</mxfile>
